<?xml version="1.0" encoding="utf-8"?>
<!-- Generator: Adobe Illustrator 25.3.1, SVG Export Plug-In . SVG Version: 6.00 Build 0)  -->
<svg version="1.1" id="Layer_1" xmlns="http://www.w3.org/2000/svg" xmlns:xlink="http://www.w3.org/1999/xlink" x="0px" y="0px"
	 viewBox="0 0 220 220" style="enable-background:new 0 0 220 220;" xml:space="preserve">
<style type="text/css">
	.st0{fill-rule:evenodd;clip-rule:evenodd;fill:#FFFFFF;}
	.st1{fill-rule:evenodd;clip-rule:evenodd;fill:#006FCF;}
</style>
<path class="st0" d="M0,0h220v220H0V0z"/>
<path class="st1" d="M9.7,202.8H9.1c0-0.3-0.2-0.8-0.2-0.9c0-0.2,0-0.5-0.5-0.5H7.5v1.4H7v-3.3h1.4c0.6,0,1.1,0.2,1.1,0.8
	c0,0.5-0.2,0.6-0.3,0.8c0.2,0.2,0.3,0.3,0.3,0.6v0.6c0,0.2,0,0.2,0.2,0.2V202.8z M9.1,200.5c0-0.5-0.3-0.5-0.5-0.5H7.5v0.9h0.9
	C8.7,200.9,9.1,200.8,9.1,200.5L9.1,200.5z M11.7,201.1c0-1.9-1.6-3.5-3.6-3.5c-1.9,0-3.5,1.6-3.5,3.5c0,2,1.6,3.6,3.5,3.6
	C10.2,204.7,11.7,203.1,11.7,201.1z M11.3,201.1c0,1.7-1.4,3-3.1,3c-1.7,0-3-1.3-3-3c0-1.6,1.3-3,3-3
	C9.8,198.1,11.3,199.5,11.3,201.1z M205.2,137.5c0,4.7-3,6.9-8.3,6.9h-10.2v-4.7h10.2c0.9,0,1.7-0.2,2-0.5c0.3-0.3,0.6-0.8,0.6-1.4
	c0-0.6-0.3-1.3-0.6-1.6c-0.3-0.3-0.9-0.5-1.9-0.5c-4.9-0.2-11,0.2-11-6.8c0-3.1,2-6.6,7.6-6.6h10.5v4.7h-9.8c-0.9,0-1.6,0-2,0.3
	c-0.5,0.5-0.8,0.9-0.8,1.7c0,0.8,0.5,1.3,1.1,1.6c0.6,0.2,1.3,0.3,2,0.3h2.8c3,0,4.9,0.6,6.1,1.7
	C204.6,133.9,205.2,135.3,205.2,137.5L205.2,137.5z M183,132.8c-1.3-1.1-3.1-1.7-6.1-1.7h-2.8c-0.8,0-1.4-0.2-2-0.3
	c-0.6-0.3-1.1-0.8-1.1-1.6c0-0.8,0.2-1.3,0.8-1.7c0.5-0.3,1.1-0.3,2-0.3h9.8v-4.7H173c-5.7,0-7.6,3.5-7.6,6.6c0,6.9,6.1,6.6,11,6.8
	c0.9,0,1.6,0.2,1.9,0.5c0.3,0.3,0.6,0.9,0.6,1.6c0,0.6-0.3,1.1-0.6,1.4c-0.5,0.3-1.1,0.5-2,0.5H166v4.7h10.2c5.4,0,8.3-2.2,8.3-6.9
	C184.6,135.3,184,133.9,183,132.8L183,132.8z M162.9,139.8h-12.4v-4.4h12.1V131h-12.1v-4.1h12.4v-4.6h-17.6v22h17.6V139.8z
	 M139.6,123.5c-1.7-0.9-3.8-1.1-6.5-1.1H121v22h5.4v-8h5.7c1.9,0,3,0.2,3.8,0.9c0.9,1.1,0.9,3,0.9,4.4v2.7h5.2v-4.3
	c0-2-0.2-3-0.8-4.1c-0.5-0.6-1.4-1.4-2.7-1.9c1.4-0.5,3.8-2.4,3.8-5.8C142.3,125.8,141.3,124.4,139.6,123.5L139.6,123.5z
	 M109.7,122.4H92.8l-6.8,7.2l-6.5-7.2H58.3v22h20.9l6.8-7.2l6.5,7.2h10.2V137h6.6c4.6,0,9.1-1.3,9.1-7.4
	C118.5,123.6,113.8,122.4,109.7,122.4L109.7,122.4z M135.3,131.5c-0.8,0.3-1.6,0.3-2.5,0.3l-6.5,0.2v-5h6.5c0.9,0,1.9,0,2.5,0.5
	c0.6,0.3,1.1,0.9,1.1,1.9C136.4,130.2,136,131,135.3,131.5z M109.7,132.6h-6.9v-5.7h6.9c1.9,0,3.1,0.8,3.1,2.7
	C112.8,131.5,111.6,132.6,109.7,132.6L109.7,132.6z M89.4,133.4l8.2-8.7v17.8L89.4,133.4z M76.6,139.8H63.5v-4.4h11.7V131H63.5v-4.1
	h13.2l5.8,6.5L76.6,139.8z M190.6,106.5H183l-9.9-16.5v16.5h-10.7l-2-4.9h-11l-2,4.9h-6.1c-2.5,0-5.8-0.6-7.7-2.5
	c-1.7-1.9-2.7-4.4-2.7-8.3c0-3.3,0.5-6.3,2.8-8.7c1.6-1.7,4.4-2.5,8-2.5h5v4.7h-5c-1.9,0-3,0.3-4.1,1.3c-0.9,0.9-1.4,2.7-1.4,5
	c0,2.4,0.5,4.1,1.4,5.2c0.8,0.8,2.2,1.1,3.6,1.1h2.4l7.6-17.3h7.9l8.8,20.8V84.4h8.2l9.3,15.3V84.4h5.4L190.6,106.5L190.6,106.5z
	 M128.1,84.4h-5.4v22h5.4V84.4z M116.9,85.4c-1.7-0.9-3.6-0.9-6.3-0.9H98.5v22h5.2v-8h5.7c1.9,0,3.1,0.2,3.9,0.9
	c0.9,1.1,0.8,3,0.8,4.3v2.8h5.4V102c0-1.9-0.2-2.8-0.9-3.9c-0.5-0.6-1.4-1.4-2.5-1.9c1.4-0.6,3.8-2.4,3.8-5.8
	C119.7,87.9,118.6,86.5,116.9,85.4L116.9,85.4z M94.7,101.9H82.4v-4.4h12.1v-4.6H82.4V89h12.3v-4.6H77.1v22h17.6L94.7,101.9z
	 M73.1,84.4h-8.7l-6.5,15l-6.9-15h-8.5v20.8l-9-20.8h-7.9l-9.4,22H22l2-4.9h11l2,4.9h10.7V89.1l7.7,17.3h4.6l7.7-17.3v17.3h5.4
	L73.1,84.4L73.1,84.4z M158.5,96.9l-3.6-8.7l-3.6,8.7H158.5z M112.8,93.4c-0.8,0.5-1.6,0.5-2.7,0.5h-6.5V89h6.5c0.9,0,2,0,2.7,0.3
	c0.6,0.5,0.9,1.1,0.9,2S113.4,93.1,112.8,93.4L112.8,93.4z M25.9,96.9l3.6-8.7l3.6,8.7H25.9z M204,15.3H16.1v79.4L22.6,80h13.7
	l1.9,3.6V80h16.1l3.6,7.9l3.5-7.9h51.2c2.4,0,4.4,0.5,6,1.7V80h14v1.7c2.4-1.3,5.4-1.7,8.8-1.7h20.3l1.9,3.6V80h15l2.2,3.6V80h14.6
	v30.9h-14.8l-2.8-4.7v4.7h-18.4l-2-5h-4.6l-2,5H141c-3.8,0-6.6-0.9-8.5-1.9v1.9h-22.8v-7.1c0-0.9-0.2-1.1-0.8-1.1h-0.8v8.2H64v-3.9
	l-1.6,3.9h-9.3l-1.6-3.8v3.8H33.8l-1.9-5h-4.6l-2,5h-9.1v93.1H204v-56.5c-2,0.9-4.9,1.4-7.7,1.4h-13.7v-1.9
	c-1.6,1.3-4.4,1.9-7.1,1.9h-43.1v-7.1c0-0.9-0.2-0.9-0.9-0.9h-0.8v8h-14.2v-8.3c-2.4,1.1-5,1.1-7.4,1.1h-1.6v7.2H90.1l-4.1-4.7
	l-4.6,4.7H53.6V118H82l4.1,4.7l4.4-4.7h19.1c2.2,0,5.8,0.3,7.4,1.9V118h17c1.7,0,5,0.3,7.2,1.9V118h25.7v1.9
	c1.4-1.3,4.1-1.9,6.5-1.9h14.3v1.9c1.6-1.1,3.8-1.9,6.6-1.9h9.8L204,15.3z"/>
</svg>
