<svg id="Layer_1" data-name="Layer 1" xmlns="http://www.w3.org/2000/svg" viewBox="0 0 260 80"><defs><style>.cls-1{fill:#0b3d91;}.cls-2{fill:#fff;}.cls-3{fill:#fc3d21;}.cls-4{fill:red;}</style></defs><circle class="cls-1" cx="45.4" cy="40" r="39.96"/><circle class="cls-2" cx="43.04" cy="7.72" r="0.45"/><circle class="cls-2" cx="47.64" cy="8.31" r="0.45"/><circle class="cls-2" cx="53.67" cy="16.44" r="0.45"/><circle class="cls-2" cx="20.58" cy="58.25" r="0.45"/><circle class="cls-2" cx="21.74" cy="61.83" r="0.45"/><circle class="cls-2" cx="16.19" cy="58.79" r="0.34"/><circle class="cls-2" cx="34.41" cy="65.83" r="0.34"/><circle class="cls-2" cx="62.98" cy="59.89" r="0.34"/><circle class="cls-2" cx="71.28" cy="50.87" r="0.34"/><circle class="cls-2" cx="30.58" cy="19.06" r="0.34"/><circle class="cls-2" cx="39.72" cy="12.34" r="0.34"/><circle class="cls-2" cx="38.73" cy="11.69" r="0.34"/><circle class="cls-2" cx="37.83" cy="11.03" r="0.34"/><circle class="cls-2" cx="32.02" cy="20.79" r="0.34"/><circle class="cls-2" cx="45.48" cy="3.33" r="0.34"/><circle class="cls-2" cx="47.69" cy="13" r="0.34"/><circle class="cls-2" cx="44.2" cy="11.11" r="0.34"/><circle class="cls-2" cx="38.23" cy="13.68" r="0.34"/><circle class="cls-2" cx="64.57" cy="68.75" r="0.34"/><circle class="cls-2" cx="20.01" cy="60.52" r="0.34"/><circle class="cls-2" cx="43.37" cy="64.85" r="0.34"/><circle class="cls-2" cx="26.96" cy="60.25" r="0.34"/><circle class="cls-2" cx="29.87" cy="64.99" r="0.34"/><circle class="cls-2" cx="51.25" cy="62" r="0.34"/><circle class="cls-2" cx="63.04" cy="55.35" r="0.34"/><circle class="cls-2" cx="71.98" cy="59.43" r="0.34"/><circle class="cls-2" cx="75.02" cy="61.38" r="0.34"/><circle class="cls-2" cx="75.52" cy="56.07" r="0.34"/><circle class="cls-2" cx="31.08" cy="48.54" r="0.34"/><circle class="cls-2" cx="31.21" cy="56.25" r="0.45"/><circle class="cls-2" cx="33.9" cy="61.92" r="0.45"/><circle class="cls-2" cx="66.09" cy="56.01" r="0.45"/><circle class="cls-2" cx="77.68" cy="55.35" r="0.45"/><circle class="cls-2" cx="71.95" cy="52.9" r="0.45"/><circle class="cls-2" cx="66.09" cy="53.14" r="0.45"/><path class="cls-2" d="M54,7.44l1.11-.11L54,7.27a.5.5,0,0,0-.42-.42l-.11-1.1-.06,1.11a.49.49,0,0,0-.38.43l-1.14.1,1.14.06a.52.52,0,0,0,.4.38L53.55,9l.06-1.14A.49.49,0,0,0,54,7.44Z"/><path class="cls-2" d="M35.22,19.84l1.11-.11-1.11-.06a.48.48,0,0,0-.43-.41l-.1-1.11-.06,1.12a.49.49,0,0,0-.39.42l-1.13.1,1.14.06a.48.48,0,0,0,.39.38l.11,1.14.06-1.14A.49.49,0,0,0,35.22,19.84Z"/><path class="cls-2" d="M76.86,52.63,78,52.52l-1.11-.06a.49.49,0,0,0-.43-.41l-.1-1.11-.07,1.12a.49.49,0,0,0-.38.42l-1.14.1,1.15.06a.48.48,0,0,0,.39.38l.11,1.14L76.46,53A.49.49,0,0,0,76.86,52.63Z"/><path class="cls-2" d="M31.45,69.77l1.12-.11-1.11-.06a.51.51,0,0,0-.43-.41l-.1-1.11-.07,1.12a.49.49,0,0,0-.38.42l-1.14.11,1.15.06a.51.51,0,0,0,.39.38l.1,1.14.07-1.14A.5.5,0,0,0,31.45,69.77Z"/><path class="cls-2" d="M73.32,61.41l1.12-.11-1.11-.06a.5.5,0,0,0-.43-.41l-.1-1.11-.07,1.12a.49.49,0,0,0-.38.42l-1.14.1,1.15.06a.48.48,0,0,0,.39.38L72.86,63l.06-1.15A.48.48,0,0,0,73.32,61.41Z"/><path class="cls-3" d="M54.87,30.43c-4.64,1.8-9.18,3.42-13,4.61-7.77,2.44-29,9-41.87,17.32l1.08.42a78.17,78.17,0,0,1,17.79-7.34c5.32-1.68,22.51-5.7,30.29-7.89,2.63-.74,5.71-1.71,9-2.89-.76-1-1.56-2.12-2.4-3.17Zm5.68,7.82c-1.13.76-2.07,1.37-2.73,1.75C54,42.21,35.36,54.93,31.12,57.86s-16,14-19.47,17.26l-.12,1.31A230.51,230.51,0,0,1,30.64,60.55c5.5-4.18,16.87-11.92,20.73-14.4q5.54-3.55,10-6.54l-.14-.25ZM78,19.81A177,177,0,0,1,55.67,30.12l.59.73c.93,1.18,1.81,2.35,2.64,3.53a91.18,91.18,0,0,0,19.41-9.55c-2.71,2.57-11.68,9.27-17.15,13L62,39.21c8.28-5.54,13.86-9.62,17.1-12.35,4.48-3.76,14.7-12.19,18.58-23.48C90.85,12.05,82.8,17,78,19.81Z"/><path class="cls-2" d="M40.25,49.89c-.88-1.1-2.1-2.59-3-3.74-1.22-1.54-2.36-3.1-3.39-4.65l-1,.25c1.26,2,2.65,3.91,4.16,5.81,1.11,1.4,2.12,2.52,2.63,3.22.11.14.31.45.59.87l1-.66C40.87,50.64,40.56,50.28,40.25,49.89Zm6.44,5.84c-.73-.68-2.48-1.83-4.31-3.54L41.16,53c1.18,1.66,2.79,3.7,4.05,4.3C47.1,58.22,47.61,56.61,46.69,55.73Zm9.57-24.88c-10.44-13.14-23.2-20.36-28.7-16C23.29,18.25,25,28.17,30.93,38.59l.91-.3c-5.95-10.16-7.58-19.59-3.55-22.8,5.07-4,17.3,3.23,27.44,16a78.18,78.18,0,0,1,5.51,7.88c6,9.91,7.82,18.87,3.68,22.52-1.26,1.12-5.13,1.56-10.19-.72-.07.09,0,.33.13.39,4.37,1.76,8.56,2.43,10.67.75C70.61,58.26,66.71,44,56.26,30.85Z"/><path class="cls-2" d="M11.47,32.41h6.69l5.61,9.53V34.5a3.25,3.25,0,0,0-1.43-2.09H27a3,3,0,0,0-1.2,2.09V45.44c0,.67,1,1.59,1.44,2H20.76l-5.71-9.57v7.53c0,.74.73,1.46,1.5,2.07H11.62a2.71,2.71,0,0,0,1.43-2c.06-.75,0-10.38,0-10.8C13.05,33.73,12.17,33,11.47,32.41Z"/><path class="cls-2" d="M72.66,47.39h8.9a2.35,2.35,0,0,1-1.34-1.48c-.3-.77-5-13.5-5-13.5H71.82c-1,.7-2,1.42-3.09,2.19a.19.19,0,0,1,0,.08c-.15.9-2.79,10.49-3,11-.22.66-1.37,1.39-1.83,1.78h4.79a2.16,2.16,0,0,1-.78-1.66c.09-.59.36-1.79.36-1.79h5a10.05,10.05,0,0,1,.48,1.64C73.84,46.23,73.22,46.91,72.66,47.39Zm-3.91-5.33,1.67-5.46,2.21,5.46ZM68,33l.74-.55h-1.3C67.57,32.53,67.78,32.72,68,33Z"/><path class="cls-2" d="M34,45.76c.09-.59.36-1.79.36-1.79h5a9.15,9.15,0,0,1,.48,1.64c.11.62-.52,1.3-1.07,1.78h7.83l.49-.33a3,3,0,0,1-.77-1.15c-.3-.77-5-13.5-5-13.5H33.45c.37.35,1.45,1.27,1.28,2.27s-2.79,10.49-2.95,11c-.23.66-1.38,1.39-1.84,1.78h4.79A2.18,2.18,0,0,1,34,45.76Zm2.48-9.16,2.21,5.46H34.76Z"/><path class="cls-2" d="M61,39.85l-4.62,3c.72.35,1.31.8,1.36,1.37.1,1.08-2.06,1.6-4,1.37a4.53,4.53,0,0,1-1.14-.28l-1.23.79-1.52,1v1.55a2.74,2.74,0,0,1,1.89-1.48c.29,0,1.27.9,5.33.67,2-.1,5.78-2.21,5.72-4.62A4.62,4.62,0,0,0,61,39.85ZM49.85,43.58v1.58l1.06-.71A6.7,6.7,0,0,1,49.85,43.58Zm9.79-4.72c-.38-.22-.77-.42-1.13-.59-1.91-.9-3.92-1.06-4.33-2.27-.3-.86.53-1.65,2.56-1.62a7.86,7.86,0,0,1,4.42,1.68V32.2c-.14.15-.8.91-1.4.78a26.36,26.36,0,0,0-5.34-.54A4.82,4.82,0,0,0,49.56,37c-.1,3.51,2.7,4.47,4.29,5l.55.18c1.52-1,2.72-1.75,3.42-2.15C58.29,39.73,58.91,39.34,59.64,38.86Z"/><path id="path12" d="M99.87,52.91h1.48v5.15a5.64,5.64,0,0,1-.16,1.55,2.18,2.18,0,0,1-.78,1.14,2.4,2.4,0,0,1-1.49.43,2.08,2.08,0,0,1-1.67-.68,2.9,2.9,0,0,1-.59-2l1.39-.18a2.34,2.34,0,0,0,.19,1,.87.87,0,0,0,1.43.12,2.8,2.8,0,0,0,.2-1.3Z"/><path id="path14" d="M106,59.17l1.4.26a2.55,2.55,0,0,1-.86,1.3,2.34,2.34,0,0,1-1.45.44,2.3,2.3,0,0,1-2.06-1,3.64,3.64,0,0,1-.52-2,3.46,3.46,0,0,1,.69-2.29A2.18,2.18,0,0,1,105,55a2.26,2.26,0,0,1,1.87.87,4.17,4.17,0,0,1,.65,2.65H104a1.64,1.64,0,0,0,.34,1.08,1,1,0,0,0,.81.39.83.83,0,0,0,.56-.2,1.29,1.29,0,0,0,.34-.64Zm.08-1.58a1.62,1.62,0,0,0-.32-1,1,1,0,0,0-1.49,0,1.52,1.52,0,0,0-.29,1Z"/><path id="path16" d="M111.06,55.15v1.24h-1v2.38a6,6,0,0,0,0,.84.3.3,0,0,0,.12.19.35.35,0,0,0,.24.08,1.61,1.61,0,0,0,.56-.15l.12,1.21a2.45,2.45,0,0,1-1.11.23,1.51,1.51,0,0,1-.68-.14,1,1,0,0,1-.45-.36,1.75,1.75,0,0,1-.2-.61,8.72,8.72,0,0,1,0-1.1V56.39H108V55.15h.65V54l1.41-.91v2.08Z"/><path id="path18" d="M114.9,61V52.91h2.37A7.89,7.89,0,0,1,119,53a2,2,0,0,1,1.06.8,2.75,2.75,0,0,1,.42,1.58,3,3,0,0,1-.24,1.26,2.22,2.22,0,0,1-.62.8,2.16,2.16,0,0,1-.77.39,7.65,7.65,0,0,1-1.54.11h-1V61Zm1.48-6.75v2.3h.81a3.7,3.7,0,0,0,1.17-.12,1.05,1.05,0,0,0,.46-.4,1.2,1.2,0,0,0,.17-.64,1.13,1.13,0,0,0-.24-.73,1,1,0,0,0-.59-.36,7.67,7.67,0,0,0-1.07-.05Z"/><path id="path20" d="M123.07,61h-1.4V55.15H123V56a2.39,2.39,0,0,1,.61-.78,1,1,0,0,1,.6-.19,1.72,1.72,0,0,1,.93.29l-.44,1.36a1.11,1.11,0,0,0-.66-.25.75.75,0,0,0-.5.18,1.31,1.31,0,0,0-.32.65,10,10,0,0,0-.12,2Z"/><path id="path22" d="M125.39,58a3.46,3.46,0,0,1,.34-1.5,2.59,2.59,0,0,1,1-1.11,2.71,2.71,0,0,1,1.41-.38,2.53,2.53,0,0,1,2,.87,3.51,3.51,0,0,1,0,4.4,2.49,2.49,0,0,1-2,.88,2.85,2.85,0,0,1-1.39-.36,2.41,2.41,0,0,1-1-1.08,3.88,3.88,0,0,1-.34-1.72Zm1.44.09a2.1,2.1,0,0,0,.37,1.34,1.16,1.16,0,0,0,1.85,0,2.12,2.12,0,0,0,.37-1.36,2.08,2.08,0,0,0-.37-1.33,1.16,1.16,0,0,0-1.85,0A2.11,2.11,0,0,0,126.83,58.1Z"/><path id="path24" d="M131.93,55.15h1.31V56a2,2,0,0,1,.69-.72,1.74,1.74,0,0,1,1-.28,2,2,0,0,1,1.57.8,3.51,3.51,0,0,1,.65,2.24,3.64,3.64,0,0,1-.65,2.3,2,2,0,0,1-1.58.81,1.66,1.66,0,0,1-.8-.19,2.62,2.62,0,0,1-.75-.67v3h-1.41ZM133.32,58a2.39,2.39,0,0,0,.36,1.46,1,1,0,0,0,.86.48,1,1,0,0,0,.82-.44,2.39,2.39,0,0,0,.33-1.43,2.32,2.32,0,0,0-.34-1.37,1,1,0,0,0-.83-.45,1.07,1.07,0,0,0-.86.44,2.16,2.16,0,0,0-.34,1.31Z"/><path id="path26" d="M141.73,61v-.88a2.07,2.07,0,0,1-.76.74,2,2,0,0,1-1,.27,1.78,1.78,0,0,1-1-.26,1.46,1.46,0,0,1-.61-.73,3.5,3.5,0,0,1-.19-1.3V55.15h1.4v2.71a8.35,8.35,0,0,0,.08,1.52.84.84,0,0,0,.28.44.81.81,0,0,0,.52.17,1.08,1.08,0,0,0,.65-.22,1.12,1.12,0,0,0,.39-.55,7,7,0,0,0,.1-1.58V55.15H143V61Z"/><path id="path28" d="M144.5,61V52.91h1.41V61Z"/><path id="path30" d="M146.85,59.36l1.41-.24a1.21,1.21,0,0,0,.36.69,1.15,1.15,0,0,0,.77.24,1.32,1.32,0,0,0,.82-.22.52.52,0,0,0,.19-.42.44.44,0,0,0-.1-.29,1,1,0,0,0-.47-.21,7.18,7.18,0,0,1-2.16-.76,1.57,1.57,0,0,1-.63-1.32,1.7,1.7,0,0,1,.55-1.29,2.34,2.34,0,0,1,1.69-.52,2.74,2.74,0,0,1,1.62.39,2,2,0,0,1,.73,1.17l-1.33.27a.87.87,0,0,0-.32-.53,1.1,1.1,0,0,0-.68-.18,1.42,1.42,0,0,0-.79.17.38.38,0,0,0-.16.32.34.34,0,0,0,.14.28,4.91,4.91,0,0,0,1.31.44,3.8,3.8,0,0,1,1.57.69,1.53,1.53,0,0,1,.44,1.16,1.84,1.84,0,0,1-.61,1.39,2.52,2.52,0,0,1-1.81.58,2.81,2.81,0,0,1-1.72-.48,2.28,2.28,0,0,1-.82-1.33Z"/><path id="path32" d="M153,54.35V52.91h1.41v1.44ZM153,61V55.15h1.41V61Z"/><path id="path34" d="M155.56,58a3.47,3.47,0,0,1,.35-1.5,2.57,2.57,0,0,1,1-1.11A2.77,2.77,0,0,1,158.3,55a2.51,2.51,0,0,1,2,.87,3.15,3.15,0,0,1,.77,2.19,3.19,3.19,0,0,1-.78,2.21,2.47,2.47,0,0,1-1.95.88,2.92,2.92,0,0,1-1.4-.36,2.38,2.38,0,0,1-1-1.08,3.88,3.88,0,0,1-.35-1.72Zm1.44.09a2.1,2.1,0,0,0,.38,1.34,1.13,1.13,0,0,0,.92.46,1.11,1.11,0,0,0,.92-.46,2.12,2.12,0,0,0,.38-1.36,2.09,2.09,0,0,0-.38-1.33,1.11,1.11,0,0,0-.92-.46,1.13,1.13,0,0,0-.92.46A2.11,2.11,0,0,0,157,58.1Z"/><path id="path36" d="M167,61h-1.41V58a5.19,5.19,0,0,0-.09-1.24.79.79,0,0,0-.29-.43.74.74,0,0,0-.49-.16,1,1,0,0,0-.65.22,1.16,1.16,0,0,0-.4.59,5.66,5.66,0,0,0-.11,1.35V61h-1.4V55.15h1.3V56a2.07,2.07,0,0,1,1.75-1,2,2,0,0,1,.85.18,1.52,1.52,0,0,1,.59.48,1.79,1.79,0,0,1,.27.65,5.58,5.58,0,0,1,.08,1.05Z"/><path id="path38" d="M171.3,61V53h1.48v6.69h3.68V61Z"/><path id="path40" d="M178.57,57l-1.28-.26a2.24,2.24,0,0,1,.74-1.26,2.53,2.53,0,0,1,1.56-.41,3,3,0,0,1,1.4.25,1.4,1.4,0,0,1,.65.62,3.47,3.47,0,0,1,.19,1.4l0,1.82a7.57,7.57,0,0,0,.07,1.14,4,4,0,0,0,.25.79h-1.39c0-.1-.08-.26-.13-.46a1.71,1.71,0,0,0-.05-.18,2.56,2.56,0,0,1-.77.58,2.05,2.05,0,0,1-.88.19,1.7,1.7,0,0,1-1.29-.49,1.72,1.72,0,0,1-.47-1.25,1.86,1.86,0,0,1,.21-.89,1.57,1.57,0,0,1,.6-.6,4.75,4.75,0,0,1,1.12-.36,7.15,7.15,0,0,0,1.37-.38V57a.88.88,0,0,0-.2-.64,1.11,1.11,0,0,0-.76-.19,1,1,0,0,0-.58.16,1.14,1.14,0,0,0-.34.58Zm1.88,1.26a6.94,6.94,0,0,1-.86.24,2.28,2.28,0,0,0-.76.27.67.67,0,0,0-.28.55.85.85,0,0,0,.22.57.74.74,0,0,0,.56.24,1.17,1.17,0,0,0,.73-.28.94.94,0,0,0,.33-.52,3.08,3.08,0,0,0,.06-.76Z"/><path id="path42" d="M183.16,61V52.91h1.41v2.93a1.9,1.9,0,0,1,1.54-.82,2,2,0,0,1,1.6.78,3.42,3.42,0,0,1,.64,2.24,3.68,3.68,0,0,1-.65,2.32,2,2,0,0,1-1.57.81,1.75,1.75,0,0,1-.9-.25,2.35,2.35,0,0,1-.77-.74V61Zm1.4-3.07a2.64,2.64,0,0,0,.26,1.35,1.07,1.07,0,0,0,1,.62,1,1,0,0,0,.79-.44,2.33,2.33,0,0,0,.33-1.39,2.46,2.46,0,0,0-.33-1.45,1,1,0,0,0-1.69,0,2.17,2.17,0,0,0-.33,1.32Z"/><path id="path44" d="M189.15,58a3.47,3.47,0,0,1,.35-1.5,2.59,2.59,0,0,1,1-1.11,2.71,2.71,0,0,1,1.41-.38,2.54,2.54,0,0,1,2,.87,3.51,3.51,0,0,1,0,4.4,2.49,2.49,0,0,1-2,.88,2.85,2.85,0,0,1-1.39-.36,2.41,2.41,0,0,1-1-1.08,3.88,3.88,0,0,1-.35-1.72Zm1.44.09a2.1,2.1,0,0,0,.38,1.34,1.16,1.16,0,0,0,1.85,0,2.12,2.12,0,0,0,.37-1.36,2.08,2.08,0,0,0-.37-1.33,1.16,1.16,0,0,0-1.85,0A2.11,2.11,0,0,0,190.59,58.1Z"/><path id="path46" d="M197.09,61h-1.4V55.15H197V56a2.39,2.39,0,0,1,.61-.78,1,1,0,0,1,.6-.19,1.72,1.72,0,0,1,.93.29l-.44,1.36a1.11,1.11,0,0,0-.66-.25.75.75,0,0,0-.5.18,1.31,1.31,0,0,0-.32.65,10,10,0,0,0-.12,2Z"/><path id="path48" d="M200.77,57l-1.27-.26a2.24,2.24,0,0,1,.74-1.26A2.53,2.53,0,0,1,201.8,55a3,3,0,0,1,1.41.25,1.43,1.43,0,0,1,.64.62,3.47,3.47,0,0,1,.19,1.4v1.82a7.88,7.88,0,0,0,.06,1.14,3.47,3.47,0,0,0,.26.79H203a3.85,3.85,0,0,1-.14-.46,1.71,1.71,0,0,0,0-.18A2.56,2.56,0,0,1,202,61a2,2,0,0,1-.88.19,1.71,1.71,0,0,1-1.29-.49,1.75,1.75,0,0,1-.47-1.25,1.86,1.86,0,0,1,.21-.89,1.53,1.53,0,0,1,.61-.6,4.5,4.5,0,0,1,1.11-.36,7.15,7.15,0,0,0,1.37-.38V57a.88.88,0,0,0-.2-.64,1.16,1.16,0,0,0-.76-.19,1,1,0,0,0-.58.16,1.22,1.22,0,0,0-.34.58Zm1.89,1.26a6.94,6.94,0,0,1-.86.24,2.28,2.28,0,0,0-.76.27.67.67,0,0,0-.28.55.8.8,0,0,0,.22.57.73.73,0,0,0,.56.24,1.19,1.19,0,0,0,.73-.28.94.94,0,0,0,.33-.52,3.08,3.08,0,0,0,.06-.76Z"/><path id="path50" d="M207.86,55.15v1.24h-1v2.38a6,6,0,0,0,0,.84.31.31,0,0,0,.13.19.31.31,0,0,0,.23.08,1.71,1.71,0,0,0,.57-.15l.12,1.21a2.51,2.51,0,0,1-1.11.23,1.55,1.55,0,0,1-.69-.14,1,1,0,0,1-.45-.36,1.57,1.57,0,0,1-.19-.61,8.11,8.11,0,0,1,0-1.1V56.39h-.64V55.15h.64V54l1.41-.91v2.08Z"/><path id="path52" d="M208.53,58a3.46,3.46,0,0,1,.34-1.5,2.59,2.59,0,0,1,1-1.11,2.71,2.71,0,0,1,1.41-.38,2.51,2.51,0,0,1,2,.87,3.51,3.51,0,0,1,0,4.4,2.49,2.49,0,0,1-2,.88,2.88,2.88,0,0,1-1.39-.36,2.41,2.41,0,0,1-1-1.08,3.88,3.88,0,0,1-.34-1.72Zm1.44.09a2.1,2.1,0,0,0,.37,1.34,1.15,1.15,0,0,0,.93.46,1.13,1.13,0,0,0,.92-.46,2.12,2.12,0,0,0,.38-1.36,2.09,2.09,0,0,0-.38-1.33,1.13,1.13,0,0,0-.92-.46,1.15,1.15,0,0,0-.93.46A2.11,2.11,0,0,0,210,58.1Z"/><path id="path54" d="M216.46,61h-1.41V55.15h1.31V56a2.27,2.27,0,0,1,.6-.78,1,1,0,0,1,.61-.19,1.72,1.72,0,0,1,.93.29l-.44,1.36a1.16,1.16,0,0,0-.66-.25.73.73,0,0,0-.5.18,1.23,1.23,0,0,0-.32.65,10,10,0,0,0-.12,2Z"/><path id="path56" d="M218.43,55.15h1.5l1.27,4.18,1.24-4.18h1.45L222,60.82l-.34,1a4.1,4.1,0,0,1-.35.79,1.52,1.52,0,0,1-.39.44,1.76,1.76,0,0,1-.53.27,2.63,2.63,0,0,1-.72.09,3.48,3.48,0,0,1-.79-.09l-.13-1.22a3.46,3.46,0,0,0,.6.07.85.85,0,0,0,.72-.32,2.16,2.16,0,0,0,.36-.81Z"/><path id="path60" d="M102.71,72.19l1.07.27a3.64,3.64,0,0,1-1.21,2,3.32,3.32,0,0,1-2.13.69,3.87,3.87,0,0,1-2.12-.53,3.45,3.45,0,0,1-1.24-1.55,5.68,5.68,0,0,1-.42-2.18,4.84,4.84,0,0,1,.48-2.22,3.22,3.22,0,0,1,1.37-1.43,3.92,3.92,0,0,1,1.95-.49,3.23,3.23,0,0,1,2,.62,3.16,3.16,0,0,1,1.15,1.74l-1,.25a2.5,2.5,0,0,0-.81-1.29,2.16,2.16,0,0,0-1.34-.41,2.56,2.56,0,0,0-1.55.45A2.35,2.35,0,0,0,98,69.35a4.81,4.81,0,0,0-.25,1.56,5,5,0,0,0,.3,1.81A2.22,2.22,0,0,0,99,73.88a2.62,2.62,0,0,0,1.37.38,2.31,2.31,0,0,0,1.51-.52,2.63,2.63,0,0,0,.84-1.55Z"/><path id="path62" d="M108.78,74.32a3.8,3.8,0,0,1-1.06.66,3,3,0,0,1-1.09.2,2.11,2.11,0,0,1-1.48-.48,1.57,1.57,0,0,1-.51-1.21,1.62,1.62,0,0,1,.19-.79,1.57,1.57,0,0,1,.51-.57,2.37,2.37,0,0,1,.72-.33,7.44,7.44,0,0,1,.87-.15,8.9,8.9,0,0,0,1.77-.34v-.26a1.08,1.08,0,0,0-.28-.86,1.6,1.6,0,0,0-1.12-.34,1.68,1.68,0,0,0-1,.25,1.51,1.51,0,0,0-.5.87l-1-.13a2.41,2.41,0,0,1,.43-1,1.87,1.87,0,0,1,.88-.6,3.81,3.81,0,0,1,1.32-.21,3.39,3.39,0,0,1,1.21.18,1.41,1.41,0,0,1,1,1.13,6,6,0,0,1,0,.92v1.33a15,15,0,0,0,.06,1.76,2.41,2.41,0,0,0,.25.71h-1a2.23,2.23,0,0,1-.2-.73Zm-.08-2.23a7.46,7.46,0,0,1-1.62.38,3.52,3.52,0,0,0-.86.2.83.83,0,0,0-.39.32.88.88,0,0,0,.16,1.14,1.27,1.27,0,0,0,.88.27,2,2,0,0,0,1-.26,1.5,1.5,0,0,0,.65-.69,2.31,2.31,0,0,0,.16-1Z"/><path id="path64" d="M111.22,75V66.92h1V75Z"/><path id="path66" d="M113.75,68.06V66.91h1v1.15Zm0,7V69.15h1V75Z"/><path id="path68" d="M116.49,75V69.93h-.88v-.77h.88v-.63a2.74,2.74,0,0,1,.1-.88,1.29,1.29,0,0,1,.5-.63,1.82,1.82,0,0,1,1-.24,4.61,4.61,0,0,1,.93.1l-.15.87a3.11,3.11,0,0,0-.59-.06.83.83,0,0,0-.63.2,1,1,0,0,0-.19.72v.55h1.14v.77h-1.14V75Z"/><path id="path70" d="M119,72.1a3,3,0,0,1,.9-2.42,2.72,2.72,0,0,1,1.84-.66,2.62,2.62,0,0,1,2,.8,3,3,0,0,1,.76,2.2,3.83,3.83,0,0,1-.34,1.78,2.35,2.35,0,0,1-1,1,2.84,2.84,0,0,1-1.41.36,2.6,2.6,0,0,1-2-.8A3.2,3.2,0,0,1,119,72.1Zm1,0a2.49,2.49,0,0,0,.49,1.69,1.61,1.61,0,0,0,2.46,0,2.61,2.61,0,0,0,.49-1.72,2.46,2.46,0,0,0-.5-1.66,1.62,1.62,0,0,0-2.45,0A2.47,2.47,0,0,0,120,72.1Z"/><path id="path72" d="M125.63,75V69.16h.89v.89a2.32,2.32,0,0,1,.63-.83,1.1,1.1,0,0,1,.63-.2,2,2,0,0,1,1,.32l-.34.93a1.5,1.5,0,0,0-.73-.22.93.93,0,0,0-.58.2,1,1,0,0,0-.37.55,3.87,3.87,0,0,0-.16,1.16V75Z"/><path id="path74" d="M129.4,75V69.16h.89V70a2.1,2.1,0,0,1,1.85-1,2.5,2.5,0,0,1,1,.19,1.55,1.55,0,0,1,.67.51,1.85,1.85,0,0,1,.3.73,5.34,5.34,0,0,1,.06,1V75h-1V71.46a2.62,2.62,0,0,0-.12-.91.93.93,0,0,0-.4-.48,1.31,1.31,0,0,0-.69-.18,1.6,1.6,0,0,0-1.1.4,2,2,0,0,0-.45,1.54V75Z"/><path id="path76" d="M135.67,68.06V66.91h1v1.15Zm0,7V69.15h1V75Z"/><path id="path78" d="M142,74.32a3.8,3.8,0,0,1-1.06.66,3,3,0,0,1-1.09.2,2.09,2.09,0,0,1-1.48-.48,1.55,1.55,0,0,1-.52-1.21,1.63,1.63,0,0,1,.2-.79,1.57,1.57,0,0,1,.51-.57,2.43,2.43,0,0,1,.71-.33,7.69,7.69,0,0,1,.88-.15,8.62,8.62,0,0,0,1.76-.34c0-.14,0-.23,0-.26a1.08,1.08,0,0,0-.28-.86,1.62,1.62,0,0,0-1.13-.34,1.7,1.7,0,0,0-1,.25A1.51,1.51,0,0,0,139,71l-1-.13a2.42,2.42,0,0,1,.44-1,1.88,1.88,0,0,1,.87-.6,3.83,3.83,0,0,1,1.33-.21,3.43,3.43,0,0,1,1.21.18,1.41,1.41,0,0,1,1,1.13,6.37,6.37,0,0,1,0,.92v1.33a14.17,14.17,0,0,0,.07,1.76,2.16,2.16,0,0,0,.25.71h-1a2.23,2.23,0,0,1-.19-.73Zm-.09-2.23a7.2,7.2,0,0,1-1.61.38,3.29,3.29,0,0,0-.86.2A.83.83,0,0,0,139,73a.79.79,0,0,0-.14.47.86.86,0,0,0,.3.67,1.26,1.26,0,0,0,.87.27,2,2,0,0,0,1-.26,1.4,1.4,0,0,0,.65-.69,2.31,2.31,0,0,0,.16-1Z"/><path id="path80" d="M147.86,75V66.92h1.07V75Z"/><path id="path82" d="M150.68,75V69.16h.89V70a2.11,2.11,0,0,1,1.86-1,2.58,2.58,0,0,1,1,.19,1.58,1.58,0,0,1,.66.51,2,2,0,0,1,.31.73,6.87,6.87,0,0,1,0,1V75h-1V71.46a2.94,2.94,0,0,0-.11-.91,1,1,0,0,0-.41-.48,1.31,1.31,0,0,0-.69-.18,1.56,1.56,0,0,0-1.09.4,2,2,0,0,0-.46,1.54V75Z"/><path id="path84" d="M156.55,73.29l1-.16A1.4,1.4,0,0,0,158,74a1.62,1.62,0,0,0,1.06.32,1.58,1.58,0,0,0,1-.28.85.85,0,0,0,.33-.66.62.62,0,0,0-.29-.53,4.52,4.52,0,0,0-1-.34,8.27,8.27,0,0,1-1.5-.48,1.41,1.41,0,0,1-.64-.56,1.45,1.45,0,0,1-.22-.79,1.55,1.55,0,0,1,.18-.73,1.64,1.64,0,0,1,.49-.56,2.06,2.06,0,0,1,.63-.29,2.91,2.91,0,0,1,.85-.12,3.45,3.45,0,0,1,1.21.2,1.73,1.73,0,0,1,.76.54,2.08,2.08,0,0,1,.34.92l-1,.13a1.07,1.07,0,0,0-.39-.71,1.37,1.37,0,0,0-.89-.26,1.61,1.61,0,0,0-1,.23.65.65,0,0,0-.29.53.55.55,0,0,0,.12.35.87.87,0,0,0,.38.27c.1,0,.39.12.87.25a12.43,12.43,0,0,1,1.47.47,1.52,1.52,0,0,1,.65.52,1.47,1.47,0,0,1,.23.86,1.72,1.72,0,0,1-.28.94,1.91,1.91,0,0,1-.84.68,3,3,0,0,1-1.23.24,2.7,2.7,0,0,1-1.73-.48,2.22,2.22,0,0,1-.76-1.41Z"/><path id="path86" d="M164.73,74.15l.14.88a3.53,3.53,0,0,1-.74.09,1.76,1.76,0,0,1-.84-.17,1,1,0,0,1-.42-.45,3.65,3.65,0,0,1-.12-1.18V69.93H162v-.77h.72V67.7l1-.6v2.06h1v.77h-1v3.45a1.57,1.57,0,0,0,0,.54.37.37,0,0,0,.17.2.64.64,0,0,0,.34.07,2.62,2.62,0,0,0,.43,0Z"/><path id="path88" d="M165.7,68.06V66.91h1v1.15Zm0,7V69.15h1V75Z"/><path id="path90" d="M170.36,74.15l.14.88a3.46,3.46,0,0,1-.74.09,1.76,1.76,0,0,1-.84-.17,1,1,0,0,1-.42-.45,3.65,3.65,0,0,1-.12-1.18V69.93h-.72v-.77h.72V67.7l1-.6v2.06h1v.77h-1v3.45a1.57,1.57,0,0,0,0,.54.37.37,0,0,0,.17.2.64.64,0,0,0,.34.07,2.62,2.62,0,0,0,.43,0Z"/><path id="path92" d="M175.15,75v-.86a2.17,2.17,0,0,1-1.86,1,2.39,2.39,0,0,1-1-.2,1.63,1.63,0,0,1-.67-.51,1.92,1.92,0,0,1-.3-.74,5,5,0,0,1-.06-.93V69.16h1v3.26a5.87,5.87,0,0,0,.06,1,1,1,0,0,0,.39.62,1.24,1.24,0,0,0,.75.23,1.66,1.66,0,0,0,.84-.23,1.34,1.34,0,0,0,.55-.63,3.13,3.13,0,0,0,.16-1.15V69.16h1V75Z"/><path id="path94" d="M179.74,74.15l.15.88a3.62,3.62,0,0,1-.75.09,1.76,1.76,0,0,1-.84-.17,1,1,0,0,1-.41-.45,3.65,3.65,0,0,1-.12-1.18V69.93H177v-.77h.73V67.7l1-.6v2.06h1v.77h-1v3.45a1.89,1.89,0,0,0,.05.54.42.42,0,0,0,.17.2.64.64,0,0,0,.34.07,2.53,2.53,0,0,0,.43,0Z"/><path id="path96" d="M184.7,73.15l1,.13a2.53,2.53,0,0,1-.89,1.4,2.7,2.7,0,0,1-1.67.5,2.65,2.65,0,0,1-2-.8,3.12,3.12,0,0,1-.75-2.23,3.27,3.27,0,0,1,.76-2.31,2.56,2.56,0,0,1,2-.82,2.5,2.5,0,0,1,1.92.81,3.22,3.22,0,0,1,.74,2.26c0,.06,0,.15,0,.27H181.4a2.31,2.31,0,0,0,.54,1.48,1.61,1.61,0,0,0,1.22.52,1.49,1.49,0,0,0,.93-.29,1.88,1.88,0,0,0,.61-.92Zm-3.25-1.61h3.26a2,2,0,0,0-.37-1.12,1.53,1.53,0,0,0-1.23-.58,1.59,1.59,0,0,0-1.14.46,1.88,1.88,0,0,0-.52,1.24Z"/><path id="path98" d="M189.73,72.1a3,3,0,0,1,.9-2.42,2.68,2.68,0,0,1,1.84-.66,2.6,2.6,0,0,1,2,.8,3,3,0,0,1,.77,2.2,3.83,3.83,0,0,1-.34,1.78,2.41,2.41,0,0,1-1,1,2.84,2.84,0,0,1-1.41.36,2.6,2.6,0,0,1-2-.8,3.16,3.16,0,0,1-.76-2.28Zm1,0a2.49,2.49,0,0,0,.49,1.69,1.6,1.6,0,0,0,2.45,0,2.56,2.56,0,0,0,.49-1.72,2.46,2.46,0,0,0-.49-1.66,1.58,1.58,0,0,0-1.22-.56,1.53,1.53,0,0,0-1.23.56,2.47,2.47,0,0,0-.49,1.69Z"/><path id="path100" d="M196.59,75V69.93h-.87v-.77h.87v-.63a2.69,2.69,0,0,1,.11-.88,1.23,1.23,0,0,1,.5-.63,1.82,1.82,0,0,1,1-.24,4.45,4.45,0,0,1,.92.1l-.15.87a3,3,0,0,0-.58-.06.88.88,0,0,0-.64.2,1.08,1.08,0,0,0-.18.72v.55h1.13v.77h-1.13V75Z"/><path id="path102" d="M204.78,75V67.88h-2.65v-1h6.38v1h-2.66V75Z"/><path id="path104" d="M213.48,73.15l1,.13a2.54,2.54,0,0,1-.9,1.4,2.7,2.7,0,0,1-1.67.5,2.65,2.65,0,0,1-2-.8,3.12,3.12,0,0,1-.75-2.23,3.27,3.27,0,0,1,.76-2.31,2.56,2.56,0,0,1,2-.82,2.5,2.5,0,0,1,1.92.81,3.22,3.22,0,0,1,.74,2.26c0,.06,0,.15,0,.27h-4.35a2.31,2.31,0,0,0,.54,1.48,1.61,1.61,0,0,0,1.22.52,1.49,1.49,0,0,0,.93-.29,1.88,1.88,0,0,0,.61-.92Zm-3.25-1.61h3.26a2,2,0,0,0-.37-1.12,1.52,1.52,0,0,0-1.23-.58,1.59,1.59,0,0,0-1.14.46,1.88,1.88,0,0,0-.52,1.24Z"/><path id="path106" d="M219.56,72.88l1,.13a2.54,2.54,0,0,1-.81,1.59,2.39,2.39,0,0,1-1.62.57,2.46,2.46,0,0,1-1.92-.79,3.18,3.18,0,0,1-.73-2.26,4.11,4.11,0,0,1,.31-1.67,2.19,2.19,0,0,1,1-1.07,2.77,2.77,0,0,1,1.39-.36,2.41,2.41,0,0,1,1.55.48,2.22,2.22,0,0,1,.78,1.38l-1,.15a1.64,1.64,0,0,0-.49-.89,1.24,1.24,0,0,0-.84-.3,1.54,1.54,0,0,0-1.22.54,2.59,2.59,0,0,0-.46,1.71,2.7,2.7,0,0,0,.45,1.73,1.47,1.47,0,0,0,1.17.53,1.37,1.37,0,0,0,1-.36,1.8,1.8,0,0,0,.5-1.11Z"/><path id="path108" d="M221.38,75V66.92h1v2.91a2.22,2.22,0,0,1,1.75-.81,2.39,2.39,0,0,1,1.13.26,1.46,1.46,0,0,1,.68.71,3.3,3.3,0,0,1,.21,1.32V75h-1V71.31a1.58,1.58,0,0,0-.32-1.09,1.23,1.23,0,0,0-.91-.34,1.65,1.65,0,0,0-.83.23,1.29,1.29,0,0,0-.55.63,2.83,2.83,0,0,0-.17,1.08V75Z"/><path id="path110" d="M227.65,75V69.16h.89V70a2.08,2.08,0,0,1,1.85-1,2.5,2.5,0,0,1,1,.19,1.55,1.55,0,0,1,.67.51,2,2,0,0,1,.3.73,5.34,5.34,0,0,1,.06,1V75h-1V71.46a2.62,2.62,0,0,0-.12-.91.91.91,0,0,0-.41-.48,1.27,1.27,0,0,0-.69-.18,1.6,1.6,0,0,0-1.09.4,2,2,0,0,0-.46,1.54V75Z"/><path id="path112" d="M233.54,72.1a3,3,0,0,1,.9-2.42,2.72,2.72,0,0,1,1.84-.66,2.62,2.62,0,0,1,2,.8A3,3,0,0,1,239,72a3.83,3.83,0,0,1-.34,1.78,2.35,2.35,0,0,1-1,1,2.84,2.84,0,0,1-1.41.36,2.6,2.6,0,0,1-2-.8,3.16,3.16,0,0,1-.76-2.28Zm1,0a2.49,2.49,0,0,0,.49,1.69,1.6,1.6,0,0,0,2.45,0,2.56,2.56,0,0,0,.49-1.72,2.46,2.46,0,0,0-.49-1.66,1.57,1.57,0,0,0-1.22-.56,1.53,1.53,0,0,0-1.23.56,2.47,2.47,0,0,0-.49,1.69Z"/><path id="path114" d="M240.15,75V66.92h1V75Z"/><path id="path116" d="M242.31,72.1a3,3,0,0,1,.9-2.42,2.72,2.72,0,0,1,1.84-.66,2.62,2.62,0,0,1,2,.8,3,3,0,0,1,.76,2.2,3.83,3.83,0,0,1-.34,1.78,2.35,2.35,0,0,1-1,1,2.84,2.84,0,0,1-1.41.36,2.6,2.6,0,0,1-2-.8,3.16,3.16,0,0,1-.76-2.28Zm1,0a2.49,2.49,0,0,0,.49,1.69,1.6,1.6,0,0,0,2.45,0,2.56,2.56,0,0,0,.49-1.72,2.46,2.46,0,0,0-.49-1.66,1.57,1.57,0,0,0-1.22-.56,1.53,1.53,0,0,0-1.23.56,2.47,2.47,0,0,0-.49,1.69Z"/><path id="path118" d="M248.76,75.53l1,.14a.92.92,0,0,0,.34.66,1.65,1.65,0,0,0,1,.28,1.76,1.76,0,0,0,1.06-.28,1.38,1.38,0,0,0,.51-.78,6.06,6.06,0,0,0,.07-1.28,2,2,0,0,1-1.61.77,2.21,2.21,0,0,1-1.87-.87,3.41,3.41,0,0,1-.66-2.1,3.81,3.81,0,0,1,.31-1.56,2.46,2.46,0,0,1,.87-1.1,2.35,2.35,0,0,1,1.35-.39,2.1,2.1,0,0,1,1.71.84v-.7h.91v5.08a4.94,4.94,0,0,1-.28,2,2,2,0,0,1-.88.91,3,3,0,0,1-1.48.33,2.82,2.82,0,0,1-1.69-.47,1.62,1.62,0,0,1-.62-1.43Zm.82-3.54a2.51,2.51,0,0,0,.46,1.69,1.42,1.42,0,0,0,1.14.54,1.47,1.47,0,0,0,1.14-.53,2.49,2.49,0,0,0,.46-1.66,2.4,2.4,0,0,0-.47-1.63,1.46,1.46,0,0,0-1.15-.55,1.42,1.42,0,0,0-1.12.54,2.39,2.39,0,0,0-.46,1.6Z"/><path id="path120" d="M255.17,77.31l-.11-.94a2.15,2.15,0,0,0,.57.09,1.11,1.11,0,0,0,.52-.11,1.08,1.08,0,0,0,.33-.31,5.38,5.38,0,0,0,.3-.75l.09-.24-2.22-5.9h1.07l1.21,3.41c.16.43.3.89.43,1.36.11-.45.25-.9.4-1.34L259,69.15h1l-2.22,6a10.86,10.86,0,0,1-.56,1.34,1.91,1.91,0,0,1-.6.72,1.45,1.45,0,0,1-.81.23,2,2,0,0,1-.64-.12Z"/><path id="path3203" class="cls-4" d="M99.43,38.17,102,33.26l10.08-.19c8.13-.16,10.18-.37,10.65-1.12.32-.51.59-7.08.59-14.6V3.66h12.92V19.87c0,15.79,0,16.26-1.39,18.24a16.53,16.53,0,0,1-3.11,3.32c-1.65,1.22-2.61,1.29-18.36,1.47l-16.62.18Z"/><path id="path3201" class="cls-4" d="M140.59,23.34V3.66h19.25c18.73,0,19.31,0,22,1.38,8.12,4.11,10,19.07,3.1,25.26-3,2.69-4.86,3-16.6,2.76l-8.87-.19-2.66-4.51c-1.47-2.48-2.67-4.62-2.67-4.76a94.9,94.9,0,0,1,9.84-.26c9,0,9.95-.1,11.07-1.23,1.68-1.68,1.67-5.71,0-7.39-1.16-1.17-1.9-1.24-11.23-1.08l-10,.17-.17,14.61L153.49,43h-12.9V23.34Z"/><path id="path1873" class="cls-4" d="M196.07,42c-3.67-1.8-3.82-2.62-3.82-21.39V3.66h11.67l.16,14.3.17,14.3,10.91.17,10.92.16,2.46,4.9c1.35,2.69,2.46,5,2.46,5.21s-7.4.32-16.45.31C200.61,43,197.79,42.84,196.07,42Z"/></svg>