<svg width="201" height="30" viewBox="0 0 201 30" fill="none" xmlns="http://www.w3.org/2000/svg">
<g clip-path="url(#clip0)">
<path d="M23.8149 1.32649C23.4602 1.31106 21.8869 1.29564 20.7609 1.29564C20.0051 1.29564 19.3573 1.82006 19.2031 2.56042L18.6015 5.41389C18.4936 5.92289 18.0463 6.29307 17.5219 6.29307L11.9537 6.32392C5.72237 6.32392 0 10.9974 0 17.5373C0 23.4139 4.90488 28.7044 11.9537 28.7044C12.3239 28.7198 14.3599 28.7198 15.7326 28.7198C16.4884 28.7198 17.1362 28.1954 17.2905 27.455L17.892 24.5861C18 24.0771 18.4473 23.6915 18.9717 23.6915L23.8458 23.707C30.7249 23.707 35.7995 18.4165 35.7995 12.4782C35.7686 6.01543 30.1697 1.32649 23.8149 1.32649ZM23.7841 19.4036L18.8175 19.419C18.0771 19.419 17.4293 19.9435 17.2905 20.6684L16.7044 23.5681C16.5964 24.0771 16.1491 24.4473 15.6247 24.4473C14.3753 24.4473 13.6812 24.401 12.0154 24.401C8.25193 24.401 4.27249 21.8869 4.27249 17.5681C4.27249 13.5579 7.82005 10.6118 12 10.6118L17.6607 10.5964C18.401 10.5964 19.0488 10.072 19.1877 9.34705L19.7892 6.46273C19.8972 5.95374 20.3445 5.58356 20.8689 5.58356C21.9177 5.58356 23.5527 5.59898 23.7841 5.61441C27.7326 5.61441 31.5116 8.31363 31.5116 12.5553C31.5116 16.4267 28.1337 19.4036 23.7841 19.4036Z" fill="black"/>
<path d="M137.568 7.31105C135.625 7.31105 133.851 8.28277 132.956 9.20822L132.601 7.7892H129.887V30H132.91V22.2416L133.003 22.1954C133.897 23.1362 135.625 23.9075 137.337 23.9075C141.393 23.9075 145.157 21.2699 145.157 15.4859C145.141 10.2108 141.517 7.31105 137.568 7.31105ZM137.167 20.9306C135.116 20.9306 132.895 19.2956 132.895 15.7326V15.5784C132.895 12.1697 135.162 10.3805 137.398 10.3805C140.422 10.3805 141.733 13.0643 141.733 15.5476C141.733 19.527 139.311 20.9306 137.167 20.9306Z" fill="black"/>
<path d="M68.0359 0H64.8431V23.5064H68.0359V0Z" fill="black"/>
<path d="M54.2468 20.8226C51.0848 20.8226 49.2956 18.3702 49.2956 15.6247C49.2956 12.4627 51.347 10.3342 54.2468 10.3342C55.7121 10.3342 56.7301 10.9357 57.6864 11.5218L59.1825 8.80719C58.1337 8.12853 56.2828 7.31105 54.4473 7.31105C49.4807 7.31105 45.964 10.7969 45.964 15.6093C45.964 20.3445 49.5732 23.9075 54.4473 23.9075C56.5295 23.9075 58.0257 23.0283 59.1825 22.3805L57.6864 19.7121C56.7301 20.2982 55.4036 20.8226 54.2468 20.8226Z" fill="black"/>
<path d="M86.4061 7.7892L86.0514 9.20822C85.1568 8.26735 83.383 7.31105 81.4395 7.31105C77.4909 7.31105 73.8508 10.4267 73.8508 15.5013C73.8508 20.7763 77.4755 23.9229 81.4395 23.9229C83.383 23.9229 85.1568 22.9512 86.0514 22.0257L86.4061 23.4447H89.1208V7.7892H86.4061ZM86.0976 15.7326C86.0976 19.3111 83.8765 20.9306 81.8251 20.9306C79.6812 20.9306 77.2596 19.5116 77.2596 15.5321C77.2596 13.0488 78.5552 10.365 81.5938 10.365C83.8303 10.365 86.0976 12.1542 86.0976 15.563V15.7326Z" fill="black"/>
<path d="M100.458 17.0129C102.663 17.5835 103.589 18.0154 103.589 19.1414C103.589 20.0051 102.802 20.8843 101.059 20.8843C99.4241 20.8843 98.0976 20.2982 96.8791 19.6041L95.4138 22.2725C96.5552 22.982 98.9614 23.9075 101.059 23.9075C104.56 23.9075 106.627 21.5167 106.627 19.1414C106.627 15.0386 102.586 14.3753 101.522 14.0206C99.239 13.419 98.6992 12.9717 98.6992 12.0154C98.6992 11.0437 99.5629 10.3342 101.182 10.3342C102.632 10.3342 103.681 10.7815 104.684 11.2751L106.18 8.56041C104.715 7.91259 103.064 7.31105 101.198 7.31105C97.7583 7.31105 95.676 9.73264 95.676 12.0154C95.6606 15.6093 98.73 16.5347 100.458 17.0129Z" fill="black"/>
<path d="M117.501 17.0129C119.707 17.5835 120.632 18.0154 120.632 19.1414C120.632 20.0051 119.846 20.8843 118.103 20.8843C116.468 20.8843 115.141 20.2982 113.923 19.6041L112.458 22.2725C113.599 22.982 116.005 23.9075 118.103 23.9075C121.604 23.9075 123.671 21.5167 123.671 19.1414C123.671 15.0386 119.63 14.3753 118.566 14.0206C116.283 13.419 115.743 12.9717 115.743 12.0154C115.743 11.0437 116.607 10.3342 118.226 10.3342C119.676 10.3342 120.725 10.7815 121.727 11.2751L123.224 8.56041C121.758 7.91259 120.108 7.31105 118.242 7.31105C114.802 7.31105 112.72 9.73264 112.72 12.0154C112.72 15.6093 115.789 16.5347 117.501 17.0129Z" fill="black"/>
<path d="M162.925 7.7892L162.571 9.20822C161.676 8.26735 159.902 7.31105 157.959 7.31105C154.01 7.31105 150.37 10.4267 150.37 15.5013C150.37 20.7763 153.995 23.9229 157.959 23.9229C159.902 23.9229 161.676 22.9512 162.571 22.0257L162.925 23.4447H165.64V7.7892H162.925ZM162.617 15.7326C162.617 19.3111 160.396 20.9306 158.344 20.9306C156.2 20.9306 153.779 19.5116 153.779 15.5321C153.779 13.0488 155.074 10.365 158.113 10.365C160.35 10.365 162.617 12.1542 162.617 15.563V15.7326Z" fill="black"/>
<path d="M176.977 17.0129C179.182 17.5835 180.108 18.0154 180.108 19.1414C180.108 20.0051 179.321 20.8843 177.578 20.8843C175.943 20.8843 174.617 20.2982 173.398 19.6041L171.933 22.2725C173.074 22.982 175.481 23.9075 177.578 23.9075C181.08 23.9075 183.146 21.5167 183.146 19.1414C183.146 15.0386 179.105 14.3753 178.041 14.0206C175.758 13.419 175.218 12.9717 175.218 12.0154C175.218 11.0437 176.082 10.3342 177.702 10.3342C179.152 10.3342 180.2 10.7815 181.203 11.2751L182.699 8.56041C181.234 7.91259 179.583 7.31105 177.717 7.31105C174.278 7.31105 172.195 9.73264 172.195 12.0154C172.18 15.6093 175.249 16.5347 176.977 17.0129Z" fill="black"/>
<path d="M194.036 17.0129C196.242 17.5835 197.167 18.0154 197.167 19.1414C197.167 20.0051 196.38 20.8843 194.638 20.8843C193.003 20.8843 191.676 20.2982 190.458 19.6041L188.992 22.2725C190.134 22.982 192.54 23.9075 194.638 23.9075C198.139 23.9075 200.206 21.5167 200.206 19.1414C200.206 15.0386 196.165 14.3753 195.1 14.0206C192.817 13.419 192.278 12.9717 192.278 12.0154C192.278 11.0437 193.141 10.3342 194.761 10.3342C196.211 10.3342 197.26 10.7815 198.262 11.2751L199.758 8.56041C198.293 7.91259 196.643 7.31105 194.776 7.31105C191.337 7.31105 189.255 9.73264 189.255 12.0154C189.239 15.6093 192.308 16.5347 194.036 17.0129Z" fill="black"/>
</g>
<defs>
<clipPath id="clip0">
<rect width="200.206" height="30" fill="white"/>
</clipPath>
</defs>
</svg>
